<svg width="38" height="38" viewBox="0 0 38 38" fill="none" xmlns="http://www.w3.org/2000/svg">
<path d="M19 3.5625C15.9468 3.5625 12.9621 4.46789 10.4234 6.16419C7.88471 7.86048 5.90604 10.2715 4.73762 13.0923C3.56919 15.9132 3.26347 19.0171 3.85913 22.0117C4.45479 25.0063 5.92507 27.757 8.08405 29.916C10.243 32.0749 12.9937 33.5452 15.9883 34.1409C18.9829 34.7365 22.0868 34.4308 24.9077 33.2624C27.7285 32.094 30.1395 30.1153 31.8358 27.5766C33.5321 25.0379 34.4375 22.0532 34.4375 19C34.4332 14.907 32.8054 10.983 29.9112 8.08881C27.017 5.19466 23.093 3.56682 19 3.5625ZM10.9963 29.3164C11.8553 27.9729 13.0388 26.8672 14.4375 26.1013C15.8363 25.3355 17.4053 24.934 19 24.934C20.5947 24.934 22.1637 25.3355 23.5625 26.1013C24.9612 26.8672 26.1447 27.9729 27.0038 29.3164C24.7153 31.0962 21.899 32.0624 19 32.0624C16.101 32.0624 13.2847 31.0962 10.9963 29.3164ZM14.25 17.8125C14.25 16.873 14.5286 15.9547 15.0505 15.1735C15.5725 14.3924 16.3143 13.7836 17.1823 13.4241C18.0502 13.0646 19.0053 12.9705 19.9267 13.1538C20.8481 13.337 21.6945 13.7894 22.3588 14.4537C23.0231 15.118 23.4755 15.9644 23.6587 16.8858C23.842 17.8072 23.748 18.7623 23.3884 19.6302C23.0289 20.4982 22.4201 21.24 21.639 21.762C20.8578 22.2839 19.9395 22.5625 19 22.5625C17.7402 22.5625 16.532 22.0621 15.6412 21.1713C14.7505 20.2805 14.25 19.0723 14.25 17.8125ZM28.7613 27.6702C27.4369 25.7511 25.5746 24.2663 23.4086 23.4027C24.5721 22.4863 25.4211 21.2301 25.8375 19.8088C26.254 18.3876 26.2172 16.8718 25.7323 15.4725C25.2473 14.0731 24.3384 12.8596 23.1318 12.0007C21.9252 11.1419 20.481 10.6803 19 10.6803C17.519 10.6803 16.0748 11.1419 14.8682 12.0007C13.6616 12.8596 12.7527 14.0731 12.2678 15.4725C11.7828 16.8718 11.746 18.3876 12.1625 19.8088C12.5789 21.2301 13.4279 22.4863 14.5914 23.4027C12.4254 24.2663 10.5632 25.7511 9.23876 27.6702C7.56523 25.7883 6.47139 23.4627 6.08898 20.9735C5.70657 18.4843 6.05187 15.9376 7.08332 13.6401C8.11477 11.3426 9.78838 9.3922 11.9026 8.02384C14.0169 6.65549 16.4816 5.92747 19 5.92747C21.5184 5.92747 23.9832 6.65549 26.0974 8.02384C28.2116 9.3922 29.8852 11.3426 30.9167 13.6401C31.9481 15.9376 32.2934 18.4843 31.911 20.9735C31.5286 23.4627 30.4348 25.7883 28.7613 27.6702Z" fill="#8599FF"/>
</svg>
