<svg width="52" height="52" viewBox="0 0 52 52" fill="none" xmlns="http://www.w3.org/2000/svg">
<path d="M35.3438 9.69925C32.8347 6.80154 30.0108 4.19223 26.9242 1.91956C26.651 1.72816 26.3255 1.62549 25.9919 1.62549C25.6583 1.62549 25.3328 1.72816 25.0595 1.91956C21.9786 4.19318 19.1602 6.80246 16.6562 9.69925C11.0723 16.1119 8.125 22.8719 8.125 29.25C8.125 33.9908 10.0083 38.5374 13.3605 41.8896C16.7127 45.2418 21.2593 47.125 26 47.125C30.7407 47.125 35.2873 45.2418 38.6395 41.8896C41.9917 38.5374 43.875 33.9908 43.875 29.25C43.875 22.8719 40.9277 16.1119 35.3438 9.69925ZM26 43.875C22.1225 43.8707 18.4051 42.3285 15.6633 39.5867C12.9215 36.8449 11.3793 33.1275 11.375 29.25C11.375 17.6252 22.6423 7.92191 26 5.28128C29.3577 7.92191 40.625 17.6211 40.625 29.25C40.6207 33.1275 39.0785 36.8449 36.3367 39.5867C33.5949 42.3285 29.8775 43.8707 26 43.875ZM37.3527 31.1472C36.9313 33.5008 35.7989 35.6689 34.108 37.3594C32.4171 39.0499 30.2489 40.1818 27.8952 40.6027C27.8058 40.617 27.7155 40.6245 27.625 40.625C27.2174 40.6249 26.8247 40.4716 26.5248 40.1956C26.2249 39.9195 26.0397 39.5408 26.006 39.1346C25.9723 38.7283 26.0924 38.3243 26.3426 38.0025C26.5928 37.6807 26.9549 37.4647 27.3569 37.3974C30.7227 36.8307 33.5786 33.9747 34.1494 30.6028C34.2216 30.1778 34.4596 29.7988 34.8112 29.5493C35.1628 29.2998 35.5992 29.2002 36.0242 29.2724C36.4493 29.3446 36.8282 29.5827 37.0777 29.9343C37.3273 30.2859 37.4269 30.7222 37.3547 31.1472H37.3527Z" fill="#8599FF"/>
</svg>
