<svg width="26" height="26" viewBox="0 0 26 26" fill="none" xmlns="http://www.w3.org/2000/svg">
<g clip-path="url(#clip0_24_34)">
<path d="M14.625 2.4375C11.3927 2.4375 8.29274 3.72154 6.00714 6.00714C3.72154 8.29274 2.4375 11.3927 2.4375 14.625C2.4375 17.8573 3.72154 20.9573 6.00714 23.2429C8.29274 25.5285 11.3927 26.8125 14.625 26.8125C17.1457 26.8125 19.793 26.0531 21.7066 24.7816C21.8092 24.7135 21.8973 24.6258 21.966 24.5235C22.0347 24.4213 22.0826 24.3065 22.1069 24.1858C22.1312 24.0651 22.1315 23.9407 22.1078 23.8199C22.084 23.699 22.0367 23.584 21.9686 23.4814C21.9004 23.3789 21.8127 23.2907 21.7104 23.2221C21.6082 23.1534 21.4934 23.1055 21.3727 23.0812C21.252 23.0569 21.1276 23.0566 21.0068 23.0803C20.8859 23.1041 20.7709 23.1514 20.6684 23.2195C19.0781 24.2789 16.759 24.9375 14.625 24.9375C12.5854 24.9375 10.5916 24.3327 8.89568 23.1995C7.1998 22.0664 5.87802 20.4558 5.09749 18.5714C4.31696 16.6871 4.11274 14.6136 4.51065 12.6131C4.90856 10.6127 5.89073 8.77519 7.33296 7.33296C8.77519 5.89073 10.6127 4.90856 12.6131 4.51065C14.6136 4.11274 16.6871 4.31696 18.5714 5.09749C20.4558 5.87802 22.0664 7.1998 23.1995 8.89568C24.3327 10.5916 24.9375 12.5854 24.9375 14.625C24.9375 17.7246 23.6625 18.375 22.5938 18.375C21.525 18.375 20.25 17.7246 20.25 14.625V9.9375C20.25 9.68886 20.1512 9.4504 19.9754 9.27459C19.7996 9.09877 19.5611 9 19.3125 9C19.0639 9 18.8254 9.09877 18.6496 9.27459C18.4738 9.4504 18.375 9.68886 18.375 9.9375V10.4367C17.5337 9.68242 16.4847 9.19898 15.3647 9.04938C14.2447 8.89979 13.1056 9.09097 12.0958 9.59802C11.086 10.1051 10.2524 10.9045 9.70341 11.8921C9.15446 12.8798 8.91569 14.0099 9.01819 15.1351C9.12069 16.2604 9.55973 17.3288 10.2781 18.201C10.9965 19.0732 11.9608 19.7088 13.0456 20.0251C14.1304 20.3413 15.2853 20.3235 16.3598 19.974C17.4344 19.6245 18.3787 18.9595 19.0699 18.0656C19.773 19.4719 20.9859 20.25 22.5938 20.25C25.2352 20.25 26.8125 18.1477 26.8125 14.625C26.8091 11.3937 25.524 8.29576 23.2391 6.0109C20.9542 3.72604 17.8563 2.44091 14.625 2.4375ZM14.625 18.375C13.8833 18.375 13.1583 18.1551 12.5416 17.743C11.9249 17.331 11.4443 16.7453 11.1605 16.0601C10.8766 15.3748 10.8024 14.6208 10.9471 13.8934C11.0917 13.166 11.4489 12.4978 11.9733 11.9733C12.4978 11.4489 13.166 11.0917 13.8934 10.9471C14.6208 10.8024 15.3748 10.8766 16.0601 11.1605C16.7453 11.4443 17.331 11.9249 17.743 12.5416C18.1551 13.1583 18.375 13.8833 18.375 14.625C18.375 15.6196 17.9799 16.5734 17.2766 17.2766C16.5734 17.9799 15.6196 18.375 14.625 18.375Z" fill="#4C4C4C"/>
</g>
<defs>
<clipPath id="clip0_24_34">
<rect width="26" height="26" fill="white"/>
</clipPath>
</defs>
</svg>
