<svg width="28" height="28" viewBox="0 0 28 28" fill="none" xmlns="http://www.w3.org/2000/svg">
<path d="M24.2594 19.2434C23.6524 18.1978 22.75 15.2392 22.75 11.375C22.75 9.05436 21.8281 6.82876 20.1872 5.18782C18.5463 3.54687 16.3207 2.625 14 2.625C11.6794 2.625 9.45377 3.54687 7.81283 5.18782C6.17189 6.82876 5.25001 9.05436 5.25001 11.375C5.25001 15.2403 4.34658 18.1978 3.73955 19.2434C3.58453 19.5093 3.50235 19.8113 3.50129 20.119C3.50024 20.4267 3.58034 20.7293 3.73353 20.9962C3.88672 21.2631 4.10757 21.4848 4.37382 21.6391C4.64006 21.7934 4.94229 21.8748 5.25001 21.875H9.71361C9.91548 22.8628 10.4524 23.7506 11.2334 24.3882C12.0145 25.0258 12.9918 25.374 14 25.374C15.0083 25.374 15.9856 25.0258 16.7666 24.3882C17.5477 23.7506 18.0845 22.8628 18.2864 21.875H22.75C23.0576 21.8746 23.3597 21.7931 23.6258 21.6387C23.8919 21.4843 24.1126 21.2625 24.2657 20.9957C24.4187 20.7288 24.4987 20.4263 24.4976 20.1187C24.4965 19.8111 24.4144 19.5092 24.2594 19.2434ZM14 23.625C13.4573 23.6248 12.928 23.4565 12.4849 23.1431C12.0419 22.8297 11.7069 22.3867 11.526 21.875H16.4741C16.2932 22.3867 15.9581 22.8297 15.5151 23.1431C15.072 23.4565 14.5427 23.6248 14 23.625ZM5.25001 20.125C6.0922 18.6769 7.00001 15.3212 7.00001 11.375C7.00001 9.51848 7.73751 7.73801 9.05027 6.42525C10.363 5.1125 12.1435 4.375 14 4.375C15.8565 4.375 17.637 5.1125 18.9498 6.42525C20.2625 7.73801 21 9.51848 21 11.375C21 15.318 21.9056 18.6736 22.75 20.125H5.25001Z" fill="#5B5B5B"/>
</svg>
