<svg width="26" height="26" viewBox="0 0 26 26" fill="none" xmlns="http://www.w3.org/2000/svg">
<path d="M24.7483 17.4797L18.6239 14.7353L18.607 14.7275C18.2891 14.5916 17.9423 14.537 17.5979 14.5688C17.2536 14.6005 16.9226 14.7177 16.6349 14.9095C16.6011 14.9319 16.5685 14.9562 16.5374 14.9823L13.3732 17.6799C11.3686 16.7062 9.29898 14.6521 8.32527 12.6735L11.0267 9.4612C11.0527 9.4287 11.0774 9.3962 11.1008 9.3611C11.2885 9.07419 11.4025 8.74532 11.4324 8.40374C11.4623 8.06217 11.4074 7.71849 11.2724 7.40329V7.38769L8.52027 1.25295C8.34183 0.841187 8.03501 0.49818 7.64561 0.275129C7.25621 0.0520778 6.80511 -0.0390541 6.35966 0.015337C4.59811 0.247137 2.98117 1.11224 1.81084 2.44908C0.64051 3.78591 -0.00317323 5.50305 1.17633e-05 7.27979C1.17633e-05 17.6019 8.39807 25.9999 18.7201 25.9999C20.4969 26.0031 22.214 25.3594 23.5509 24.1891C24.8877 23.0188 25.7528 21.4018 25.9846 19.6403C26.0391 19.195 25.9481 18.744 25.7253 18.3546C25.5025 17.9652 25.1598 17.6583 24.7483 17.4797ZM18.7201 23.9199C14.3084 23.9151 10.0787 22.1604 6.95912 19.0408C3.83954 15.9212 2.08484 11.6915 2.08003 7.27979C2.07514 6.01032 2.5325 4.78246 3.36669 3.82554C4.20089 2.86862 5.35488 2.24806 6.61316 2.07975C6.61265 2.08494 6.61265 2.09016 6.61316 2.09535L9.34318 8.2054L6.65606 11.4216C6.62878 11.453 6.60401 11.4865 6.58196 11.5217C6.38633 11.8219 6.27156 12.1676 6.24879 12.5251C6.22601 12.8827 6.29599 13.2401 6.45196 13.5627C7.62977 15.9717 10.0569 18.3806 12.4918 19.5571C12.8168 19.7116 13.1762 19.7791 13.5351 19.7532C13.894 19.7272 14.24 19.6086 14.5393 19.4089C14.5727 19.3864 14.6048 19.3621 14.6355 19.3361L17.7958 16.6399L23.9059 19.3764C23.9059 19.3764 23.9163 19.3764 23.9202 19.3764C23.7539 20.6364 23.1343 21.7927 22.1772 22.629C21.2201 23.4653 19.9911 23.9242 18.7201 23.9199Z" fill="#4C4C4C"/>
</svg>
