<svg width="28" height="28" viewBox="0 0 28 28" fill="none" xmlns="http://www.w3.org/2000/svg">
<path d="M14 8.75006C12.9616 8.75006 11.9466 9.05797 11.0832 9.63485C10.2199 10.2117 9.54696 11.0317 9.1496 11.991C8.75224 12.9503 8.64827 14.0059 8.85084 15.0243C9.05341 16.0427 9.55343 16.9781 10.2877 17.7124C11.0219 18.4466 11.9573 18.9466 12.9757 19.1492C13.9941 19.3518 15.0497 19.2478 16.0091 18.8504C16.9684 18.4531 17.7883 17.7802 18.3652 16.9168C18.9421 16.0534 19.25 15.0384 19.25 14.0001C19.2485 12.6081 18.6949 11.2736 17.7107 10.2893C16.7264 9.3051 15.3919 8.75151 14 8.75006ZM14 17.5001C13.3077 17.5001 12.631 17.2948 12.0555 16.9102C11.4799 16.5256 11.0313 15.979 10.7664 15.3395C10.5015 14.6999 10.4322 13.9962 10.5672 13.3172C10.7023 12.6383 11.0356 12.0147 11.5251 11.5252C12.0146 11.0357 12.6382 10.7024 13.3171 10.5673C13.9961 10.4323 14.6998 10.5016 15.3394 10.7665C15.9789 11.0314 16.5255 11.48 16.9101 12.0556C17.2947 12.6311 17.5 13.3078 17.5 14.0001C17.5 14.9283 17.1312 15.8186 16.4748 16.4749C15.8185 17.1313 14.9282 17.5001 14 17.5001ZM26.0247 11.7262C26.0003 11.6029 25.9497 11.4864 25.8763 11.3845C25.8028 11.2826 25.7083 11.1977 25.5992 11.1355L22.3365 9.27615L22.3234 5.59897C22.323 5.47233 22.2951 5.34728 22.2417 5.23247C22.1882 5.11765 22.1105 5.01581 22.0139 4.93397C20.8304 3.93286 19.4675 3.16566 17.9976 2.67319C17.8819 2.63401 17.7592 2.61951 17.6375 2.63062C17.5158 2.64174 17.3978 2.67822 17.2911 2.73772L14 4.5774L10.7056 2.73444C10.5988 2.6746 10.4806 2.63785 10.3587 2.62654C10.2368 2.61524 10.1139 2.62964 9.99793 2.66881C8.52919 3.16489 7.16785 3.93501 5.98606 4.93834C5.88955 5.02006 5.81191 5.12173 5.75847 5.23635C5.70504 5.35096 5.67708 5.47579 5.67653 5.60225L5.66012 9.28272L2.39746 11.1421C2.28831 11.2042 2.19381 11.2891 2.1204 11.3911C2.04698 11.493 1.99637 11.6095 1.972 11.7327C1.6734 13.2332 1.6734 14.7778 1.972 16.2783C1.99637 16.4016 2.04698 16.5181 2.1204 16.62C2.19381 16.7219 2.28831 16.8068 2.39746 16.869L5.66012 18.7283L5.67325 22.4055C5.67364 22.5322 5.70152 22.6572 5.75496 22.772C5.80841 22.8868 5.88613 22.9887 5.98278 23.0705C7.16629 24.0716 8.5292 24.8388 9.99903 25.3313C10.1148 25.3705 10.2374 25.385 10.3591 25.3739C10.4808 25.3628 10.5989 25.3263 10.7056 25.2668L14 23.4227L17.2943 25.2657C17.4247 25.3383 17.5717 25.376 17.7209 25.3751C17.8165 25.375 17.9114 25.3595 18.002 25.3291C19.4706 24.8337 20.8319 24.0643 22.0139 23.0618C22.1104 22.9801 22.188 22.8784 22.2415 22.7638C22.2949 22.6492 22.3228 22.5243 22.3234 22.3979L22.3398 18.7174L25.6025 16.858C25.7116 16.7959 25.8061 16.711 25.8795 16.6091C25.9529 16.5071 26.0036 16.3906 26.0279 16.2674C26.3249 14.7681 26.3238 13.225 26.0247 11.7262ZM24.384 15.5444L21.2592 17.3218C21.1223 17.3996 21.0089 17.513 20.9311 17.6499C20.8676 17.7593 20.8009 17.8752 20.7331 17.9846C20.6463 18.1225 20.6 18.2821 20.5997 18.4451L20.5832 21.9724C19.7433 22.632 18.8076 23.1594 17.8084 23.5365L14.6562 21.7799C14.5254 21.7075 14.3781 21.6698 14.2286 21.6705H14.2078C14.0754 21.6705 13.942 21.6705 13.8097 21.6705C13.6531 21.6666 13.4984 21.7044 13.3612 21.7799L10.2068 23.5408C9.20552 23.1667 8.26721 22.6418 7.42434 21.9844L7.41231 18.4626C7.41177 18.2993 7.36555 18.1394 7.27887 18.001C7.21106 17.8916 7.14434 17.7822 7.082 17.6663C7.00469 17.5273 6.89134 17.4117 6.75387 17.3316L3.62575 15.5499C3.46387 14.526 3.46387 13.4829 3.62575 12.459L6.74512 10.6783C6.88203 10.6005 6.99539 10.4871 7.07325 10.3502C7.13668 10.2408 7.2034 10.1249 7.27121 10.0155C7.35802 9.8776 7.40426 9.71803 7.40465 9.55506L7.42106 6.02772C8.26098 5.36813 9.19672 4.84069 10.1959 4.46365L13.3437 6.22022C13.4807 6.29616 13.6356 6.33393 13.7922 6.32959C13.9245 6.32959 14.0579 6.32959 14.1903 6.32959C14.3468 6.3335 14.5016 6.29576 14.6387 6.22022L17.7931 4.45928C18.7944 4.83342 19.7327 5.35827 20.5756 6.01569L20.5876 9.53756C20.5882 9.70085 20.6344 9.86073 20.7211 9.99912C20.7889 10.1085 20.8556 10.2179 20.9179 10.3338C20.9952 10.4728 21.1086 10.5885 21.2461 10.6685L24.3742 12.4502C24.5382 13.475 24.5401 14.5191 24.3797 15.5444H24.384Z" fill="#5B5B5B"/>
</svg>
